# xmcd CD database file
#
# Track frame offsets:
#	150
#	24923
#	54780
#
# Disc length: 923 seconds
#
# Revision: 0
# Processed by: cddbd v1.4PL0 Copyright (c) Steve Scherf et al.
# Submitted via: CDex 1.51
#
DISCID=14039903
DTITLE=Mitten - Ku wa te
DYEAR=1900
DGENRE=New Age
TTITLE0=Ku wa te 1
TTITLE1=ku wa te 2
TTITLE2=ku wa te 3
EXTD=
EXTT0=
EXTT1=
EXTT2=
PLAYORDER=
